<svg id="Capa_1" enable-background="new 0 0 512 512" height="512" viewBox="0 0 512 512" width="512" xmlns="http://www.w3.org/2000/svg"><g><path d="m511.739 103.734-257 50.947v233.725c-10.733-7.199-23.633-11.406-37.5-11.406-37.22 0-67.5 30.28-67.5 67.5s30.28 67.5 67.5 67.5c34.684 0 63.329-26.299 67.073-60h.427v-182.682l197-39.053v98.141c-10.733-7.199-23.633-11.406-37.5-11.406-37.22 0-67.5 30.28-67.5 67.5s30.28 67.5 67.5 67.5c39.927 0 71.547-34.762 67.073-75h.427zm-294.5 378.266c-20.678 0-37.5-16.822-37.5-37.5s16.822-37.5 37.5-37.5 37.5 16.822 37.5 37.5-16.822 37.5-37.5 37.5zm227-60c-20.678 0-37.5-16.822-37.5-37.5s16.822-37.5 37.5-37.5 37.5 16.822 37.5 37.5-16.822 37.5-37.5 37.5zm37.5-222.318-197 39.053v-59.416l197-39.053z"/><path d="m182.179 159.75h30c0-31.002 4.415-66.799-24.144-95.356-8.968-8.968-17.455-16.07-24.942-22.336-19.798-16.57-27.832-24.012-27.832-42.058h-30v221.406c-10.734-7.199-23.634-11.406-37.5-11.406-37.22 0-67.5 30.28-67.5 67.5s30.28 67.5 67.5 67.5c34.684 0 63.329-26.299 67.073-60h.427v-227.219c9.458 8.262 20.077 16.341 31.562 27.825 19.029 19.031 15.356 44.009 15.356 74.144zm-114.418 155.25c-20.678 0-37.5-16.822-37.5-37.5s16.822-37.5 37.5-37.5 37.5 16.822 37.5 37.5-16.823 37.5-37.5 37.5z"/></g></svg>